<svg width="60" height="60" viewBox="0 0 60 60" fill="none" xmlns="http://www.w3.org/2000/svg">
<path d="M43.4216 51.9316H16.2194C13.9239 51.9316 11.7224 51.0197 10.0992 49.3966C8.47599 47.7734 7.5641 45.5719 7.5641 43.2764V16.0741C7.5641 13.7786 8.47599 11.5771 10.0992 9.95389C11.7224 8.33072 13.9239 7.41882 16.2194 7.41882H43.4216C45.7172 7.41882 47.9187 8.33072 49.5419 9.95389C51.165 11.5771 52.0769 13.7786 52.0769 16.0741V43.2764C52.0769 45.5719 51.165 47.7734 49.5419 49.3966C47.9187 51.0197 45.7172 51.9316 43.4216 51.9316ZM16.2194 9.89176C14.5797 9.89176 13.0072 10.5431 11.8478 11.7025C10.6884 12.8619 10.037 14.4344 10.037 16.0741V43.2764C10.037 44.916 10.6884 46.4885 11.8478 47.6479C13.0072 48.8074 14.5797 49.4587 16.2194 49.4587H43.4216C45.0613 49.4587 46.6338 48.8074 47.7932 47.6479C48.9526 46.4885 49.604 44.916 49.604 43.2764V16.0741C49.604 14.4344 48.9526 12.8619 47.7932 11.7025C46.6338 10.5431 45.0613 9.89176 43.4216 9.89176H16.2194Z" fill="#95E1D3"/>
<path d="M8.80057 41.5701C8.62042 41.572 8.44219 41.533 8.27937 41.4559C8.11656 41.3787 7.97344 41.2656 7.86085 41.1249C7.7548 41.0025 7.67437 40.86 7.62431 40.706C7.57426 40.552 7.5556 40.3894 7.56943 40.2281C7.58326 40.0667 7.62931 39.9097 7.70485 39.7664C7.78039 39.6231 7.88389 39.4965 8.00923 39.3939L19.632 29.6752C21.3947 28.2135 23.6649 27.5099 25.9453 27.7184C28.2257 27.927 30.3306 29.0308 31.7989 30.7881L34.5685 34.1018C35.0943 34.7354 35.7419 35.257 36.4728 35.636C37.2038 36.0149 38.0033 36.2434 38.8241 36.308C39.6449 36.3725 40.4703 36.2718 41.2515 36.0118C42.0327 35.7518 42.7538 35.3378 43.3722 34.7942L50.0244 28.9828C50.2754 28.7705 50.5994 28.6646 50.9274 28.6877C51.2554 28.7108 51.5614 28.8611 51.7802 29.1065C51.8876 29.2273 51.9699 29.3685 52.0219 29.5216C52.074 29.6747 52.0949 29.8367 52.0834 29.9981C52.0718 30.1594 52.0281 30.3168 51.9548 30.461C51.8815 30.6051 51.7801 30.7332 51.6565 30.8375L45.0043 36.6489C44.1374 37.4151 43.1253 37.9992 42.0281 38.3664C40.9309 38.7337 39.7711 38.8765 38.6176 38.7866C37.4641 38.6966 36.3405 38.3756 35.3136 37.8427C34.2866 37.3098 33.3773 36.5758 32.6397 35.6845L29.8205 32.4449C29.303 31.8224 28.6677 31.308 27.9512 30.9313C27.2346 30.5545 26.4508 30.3228 25.6446 30.2493C24.8384 30.1758 24.0256 30.262 23.2527 30.5029C22.4799 30.7439 21.7621 31.1349 21.1405 31.6536L9.51772 41.298C9.31041 41.4569 9.06107 41.5515 8.80057 41.5701Z" fill="#95E1D3"/>
</svg>
