<svg width="60" height="61" viewBox="0 0 60 61" fill="none" xmlns="http://www.w3.org/2000/svg">
<path d="M22.7727 27.8861H10.408C9.3104 27.8861 8.25741 27.4518 7.47899 26.678C6.70057 25.9042 6.25998 24.8538 6.25345 23.7563V11.3916C6.25994 10.2917 6.69973 9.23879 7.47745 8.46106C8.25518 7.68334 9.30813 7.24355 10.408 7.23706H22.7727C23.8725 7.24355 24.9255 7.68334 25.7032 8.46106C26.4809 9.23879 26.9207 10.2917 26.9272 11.3916V23.7563C26.9206 24.8538 26.4801 25.9042 25.7016 26.678C24.9232 27.4518 23.8702 27.8861 22.7727 27.8861ZM10.408 9.68527C9.96398 9.69165 9.53996 9.87087 9.22598 10.1849C8.91199 10.4988 8.73277 10.9229 8.72638 11.3669V23.7315C8.72638 24.1775 8.90355 24.6052 9.21891 24.9206C9.53427 25.236 9.96199 25.4131 10.408 25.4131H22.7727C23.2186 25.4131 23.6464 25.236 23.9617 24.9206C24.2771 24.6052 24.4542 24.1775 24.4542 23.7315V11.3669C24.4479 10.9229 24.2686 10.4988 23.9547 10.1849C23.6407 9.87087 23.2166 9.69165 22.7727 9.68527H10.408Z" fill="#95E1D3"/>
<path d="M49.2331 27.886H36.8684C35.7665 27.886 34.7098 27.4483 33.9307 26.6692C33.1516 25.8901 32.7139 24.8333 32.7139 23.7315V11.3668C32.7204 10.267 33.1601 9.21401 33.9379 8.43628C34.7156 7.65856 35.7685 7.21877 36.8684 7.21228H49.2331C50.3329 7.21877 51.3859 7.65856 52.1636 8.43628C52.9413 9.21401 53.3811 10.267 53.3876 11.3668V23.7315C53.3876 24.8333 52.9499 25.8901 52.1708 26.6692C51.3916 27.4483 50.3349 27.886 49.2331 27.886ZM36.8684 9.68521C36.4244 9.6916 36.0004 9.87082 35.6864 10.1848C35.3724 10.4988 35.1932 10.9228 35.1868 11.3668V23.7315C35.1868 24.1775 35.364 24.6052 35.6793 24.9205C35.9947 25.2359 36.4224 25.4131 36.8684 25.4131H49.2331C49.6791 25.4131 50.1068 25.2359 50.4221 24.9205C50.7375 24.6052 50.9147 24.1775 50.9147 23.7315V11.3668C50.9083 10.9228 50.7291 10.4988 50.4151 10.1848C50.1011 9.87082 49.6771 9.6916 49.2331 9.68521H36.8684Z" fill="#95E1D3"/>
<path d="M22.7727 53.4809H10.408C9.30813 53.4744 8.25518 53.0346 7.47745 52.2569C6.69973 51.4792 6.25994 50.4262 6.25345 49.3264V36.9617C6.25998 35.8642 6.70057 34.8138 7.47899 34.04C8.25741 33.2662 9.3104 32.8319 10.408 32.8319H22.7727C23.8745 32.8319 24.9312 33.2696 25.7103 34.0487C26.4895 34.8279 26.9272 35.8846 26.9272 36.9864V49.3511C26.9142 50.4467 26.4716 51.4933 25.6946 52.2657C24.9175 53.0381 23.8683 53.4745 22.7727 53.4809ZM10.408 35.3048C9.96199 35.3048 9.53427 35.482 9.21891 35.7974C8.90355 36.1127 8.72638 36.5405 8.72638 36.9864V49.3511C8.73277 49.7951 8.91199 50.2191 9.22598 50.5331C9.53996 50.8471 9.96398 51.0263 10.408 51.0327H22.7727C23.2166 51.0263 23.6407 50.8471 23.9547 50.5331C24.2686 50.2191 24.4479 49.7951 24.4542 49.3511V36.9864C24.4542 36.5405 24.2771 36.1127 23.9617 35.7974C23.6464 35.482 23.2186 35.3048 22.7727 35.3048H10.408Z" fill="#95E1D3"/>
<path d="M49.2331 53.4809H36.8684C35.7685 53.4744 34.7156 53.0346 33.9379 52.2569C33.1601 51.4792 32.7204 50.4262 32.7139 49.3264V36.9617C32.7204 35.8642 33.161 34.8138 33.9394 34.04C34.7178 33.2662 35.7708 32.8319 36.8684 32.8319H49.2331C50.3349 32.8319 51.3916 33.2696 52.1708 34.0487C52.9499 34.8279 53.3876 35.8846 53.3876 36.9864V49.3511C53.3747 50.4467 52.932 51.4933 52.155 52.2657C51.3779 53.0381 50.3287 53.4745 49.2331 53.4809ZM36.8684 35.2801C36.4224 35.2801 35.9947 35.4573 35.6793 35.7726C35.364 36.088 35.1868 36.5157 35.1868 36.9617V49.3264C35.1932 49.7704 35.3724 50.1944 35.6864 50.5084C36.0004 50.8224 36.4244 51.0016 36.8684 51.008H49.2331C49.6771 51.0016 50.1011 50.8224 50.4151 50.5084C50.7291 50.1944 50.9083 49.7704 50.9147 49.3264V36.9617C50.9147 36.5157 50.7375 36.088 50.4221 35.7726C50.1068 35.4573 49.6791 35.2801 49.2331 35.2801H36.8684Z" fill="#95E1D3"/>
</svg>
