<svg width="60" height="61" viewBox="0 0 60 61" fill="none" xmlns="http://www.w3.org/2000/svg">
<path d="M29.9658 45.7159C29.6397 45.7113 29.3286 45.5779 29.1003 45.345L15.0045 31.2492C14.8886 31.1343 14.7967 30.9975 14.7339 30.8469C14.6711 30.6962 14.6388 30.5346 14.6388 30.3713C14.6388 30.2081 14.6711 30.0465 14.7339 29.8958C14.7967 29.7452 14.8886 29.6084 15.0045 29.4935L35.7525 8.47351C35.856 8.34629 35.9888 8.24607 36.1396 8.18147C36.2903 8.11686 36.4545 8.08979 36.618 8.10257H50.8374C51.1633 8.1089 51.4741 8.24121 51.7047 8.47173C51.9352 8.70226 52.0675 9.01309 52.0738 9.33904L52.2222 23.41C52.2261 23.5761 52.1951 23.7412 52.1312 23.8945C52.0673 24.0479 51.972 24.1861 51.8513 24.3003L30.8313 45.345C30.6015 45.5757 30.2914 45.7086 29.9658 45.7159ZM17.6011 30.359L29.9658 42.7237L49.7493 22.9402L49.6009 10.5755H37.2362L17.6011 30.359Z" fill="#95E1D3"/>
<path d="M36.8653 52.6154C36.5436 52.6123 36.2348 52.4887 35.9998 52.2691L8.08034 24.3497C7.96445 24.2348 7.87247 24.098 7.80969 23.9473C7.74692 23.7967 7.7146 23.6351 7.7146 23.4718C7.7146 23.3086 7.74692 23.147 7.80969 22.9963C7.87247 22.8456 7.96445 22.7089 8.08034 22.5939C8.19135 22.4756 8.32543 22.3814 8.4743 22.3169C8.62316 22.2525 8.78366 22.2192 8.94587 22.2192C9.10809 22.2192 9.26858 22.2525 9.41745 22.3169C9.56631 22.3814 9.70039 22.4756 9.8114 22.5939L37.7556 50.5134C37.9837 50.7487 38.1113 51.0635 38.1113 51.3912C38.1113 51.719 37.9837 52.0338 37.7556 52.2691C37.5116 52.4904 37.1946 52.6137 36.8653 52.6154Z" fill="#95E1D3"/>
<path d="M17.6011 52.467C17.267 52.4662 16.9468 52.3328 16.7109 52.0961L8.12981 43.6387C8.00065 43.5232 7.89666 43.3824 7.82433 43.2249C7.75201 43.0675 7.71288 42.8969 7.70941 42.7237C7.70941 42.056 7.70941 41.9571 17.6011 32.2384C17.7161 32.1225 17.8528 32.0305 18.0035 31.9678C18.1542 31.905 18.3158 31.8727 18.479 31.8727C18.6423 31.8727 18.8039 31.905 18.9546 31.9678C19.1052 32.0305 19.242 32.1225 19.3569 32.2384C19.5851 32.4737 19.7126 32.7886 19.7126 33.1163C19.7126 33.444 19.5851 33.7589 19.3569 33.9942C16.6862 36.7639 12.408 40.9926 10.7264 42.7237L17.6011 49.4748L26.3306 40.7206C26.5634 40.4878 26.8792 40.357 27.2085 40.357C27.5378 40.357 27.8536 40.4878 28.0864 40.7206C28.3192 40.9534 28.45 41.2692 28.45 41.5985C28.45 41.9278 28.3192 42.2435 28.0864 42.4764L18.343 52.0961C18.1458 52.3015 17.8838 52.4325 17.6011 52.467Z" fill="#95E1D3"/>
<path d="M29.9658 31.5954C29.8036 31.5974 29.6429 31.5654 29.4938 31.5015C29.3447 31.4376 29.2107 31.3433 29.1003 31.2245C28.982 31.1135 28.8877 30.9794 28.8233 30.8305C28.7588 30.6817 28.7256 30.5212 28.7256 30.3589C28.7256 30.1967 28.7588 30.0362 28.8233 29.8874C28.8877 29.7385 28.982 29.6044 29.1003 29.4934L38.992 19.6017C39.1057 19.488 39.2406 19.3979 39.3891 19.3363C39.5376 19.2748 39.6968 19.2432 39.8575 19.2432C40.0183 19.2432 40.1775 19.2748 40.326 19.3363C40.4745 19.3979 40.6094 19.488 40.7231 19.6017C40.8367 19.7153 40.9269 19.8503 40.9884 19.9988C41.0499 20.1473 41.0816 20.3065 41.0816 20.4672C41.0816 20.6279 41.0499 20.7871 40.9884 20.9356C40.9269 21.0841 40.8367 21.2191 40.7231 21.3327L30.8313 31.2245C30.7209 31.3433 30.5869 31.4376 30.4378 31.5015C30.2888 31.5654 30.128 31.5974 29.9658 31.5954Z" fill="#95E1D3"/>
</svg>
