<svg width="60" height="61" viewBox="0 0 60 61" fill="none" xmlns="http://www.w3.org/2000/svg">
<path d="M25.5702 44.0837C25.3197 44.0886 25.0735 44.0188 24.8629 43.8832C24.6522 43.7477 24.4867 43.5525 24.3875 43.3225C24.2882 43.0925 24.2597 42.8382 24.3055 42.5919C24.3514 42.3457 24.4695 42.1187 24.6448 41.9398C24.8202 41.7609 25.0448 41.6383 25.2901 41.5876C25.5354 41.5369 25.7903 41.5604 26.0222 41.6551C26.2541 41.7498 26.4525 41.9114 26.5922 42.1193C26.7319 42.3272 26.8066 42.572 26.8066 42.8225C26.8067 43.1527 26.6772 43.4698 26.446 43.7056C26.2148 43.9415 25.9003 44.0772 25.5702 44.0837V44.0837Z" fill="#95E1D3"/>
<path d="M34.6458 44.0837C35.3287 44.0837 35.8823 43.5301 35.8823 42.8472C35.8823 42.1644 35.3287 41.6108 34.6458 41.6108C33.9629 41.6108 33.4094 42.1644 33.4094 42.8472C33.4094 43.5301 33.9629 44.0837 34.6458 44.0837Z" fill="#95E1D3"/>
<path d="M35.2888 53.8023H24.0617C21.1496 53.8023 18.3569 52.6455 16.2978 50.5864C14.2386 48.5273 13.0818 45.7345 13.0818 42.8225C13.0818 39.9105 14.2386 37.1177 16.2978 35.0586C18.3569 32.9995 21.1496 31.8427 24.0617 31.8427H35.2888C38.2008 31.8427 40.9936 32.9995 43.0527 35.0586C45.1118 37.1177 46.2686 39.9105 46.2686 42.8225C46.2686 45.7345 45.1118 48.5273 43.0527 50.5864C40.9936 52.6455 38.2008 53.8023 35.2888 53.8023V53.8023ZM24.0617 34.3156C22.9445 34.3156 21.8383 34.5356 20.8062 34.9631C19.7741 35.3906 18.8363 36.0173 18.0464 36.8072C17.2564 37.5971 16.6298 38.5349 16.2023 39.567C15.7748 40.5991 15.5548 41.7053 15.5548 42.8225C15.5548 43.9396 15.7748 45.0458 16.2023 46.0779C16.6298 47.11 17.2564 48.0478 18.0464 48.8378C18.8363 49.6277 19.7741 50.2543 20.8062 50.6818C21.8383 51.1093 22.9445 51.3294 24.0617 51.3294H35.2888C37.545 51.3294 39.7087 50.4331 41.3041 48.8378C42.8994 47.2424 43.7957 45.0787 43.7957 42.8225C43.7957 40.5663 42.8994 38.4025 41.3041 36.8072C39.7087 35.2118 37.545 34.3156 35.2888 34.3156H24.0617Z" fill="#95E1D3"/>
<path d="M49.4587 37.9261H42.8312C42.5033 37.9261 42.1888 37.7958 41.9569 37.5639C41.7251 37.332 41.5948 37.0175 41.5948 36.6896C41.5948 36.3617 41.7251 36.0472 41.9569 35.8153C42.1888 35.5834 42.5033 35.4531 42.8312 35.4531H49.4587C50.6504 35.4467 51.7914 34.9704 52.634 34.1277C53.4767 33.2851 53.953 32.1441 53.9595 30.9524C53.9529 25.2396 51.6823 19.7622 47.645 15.7203C43.6078 11.6784 38.133 9.4015 32.4202 9.38842H27.2023C21.4852 9.39497 16.0041 11.669 11.9615 15.7116C7.91887 19.7542 5.64486 25.2353 5.63831 30.9524C5.64481 32.1441 6.12108 33.2851 6.96373 34.1277C7.80638 34.9704 8.94739 35.4467 10.1391 35.4531H16.5192C16.8472 35.4531 17.1617 35.5834 17.3935 35.8153C17.6254 36.0472 17.7557 36.3617 17.7557 36.6896C17.7557 37.0175 17.6254 37.332 17.3935 37.5639C17.1617 37.7958 16.8472 37.9261 16.5192 37.9261H10.0154C8.16587 37.9261 6.39209 37.1914 5.08428 35.8835C3.77646 34.5757 3.04173 32.8019 3.04173 30.9524C3.04496 27.7863 3.673 24.652 4.88984 21.7291C6.10669 18.8062 7.88843 16.1522 10.1329 13.9192C12.3774 11.6862 15.0405 9.91809 17.9696 8.71625C20.8987 7.51442 24.0362 6.90247 27.2023 6.91549H32.4202C38.7846 6.92856 44.8846 9.4626 49.3849 13.9629C53.8853 18.4633 56.4193 24.5633 56.4324 30.9277C56.4324 32.7795 55.6985 34.5558 54.3914 35.8676C53.0842 37.1793 51.3105 37.9195 49.4587 37.9261V37.9261Z" fill="#95E1D3"/>
<path d="M7.83923 31.1749C6.48877 31.1539 5.15455 30.877 3.90727 30.3589C3.75616 30.2989 3.61837 30.2098 3.50177 30.0965C3.38516 29.9832 3.29204 29.8481 3.22773 29.6988C3.16341 29.5495 3.12917 29.3889 3.12696 29.2264C3.12475 29.0639 3.15461 28.9025 3.21484 28.7515C3.26932 28.5991 3.35437 28.4596 3.46475 28.3413C3.57514 28.223 3.70853 28.1285 3.85675 28.0637C4.00497 27.9989 4.16488 27.965 4.32666 27.9642C4.48844 27.9634 4.64867 27.9957 4.79752 28.059C5.76873 28.4309 6.79929 28.6236 7.83923 28.6278C9.54649 28.6158 11.2056 28.0604 12.576 27.0422C13.9464 26.0239 14.957 24.5957 15.4612 22.9646C15.9654 21.3334 15.9371 19.5841 15.3804 17.9701C14.8236 16.3562 13.7674 14.9614 12.3647 13.9881C12.1368 13.789 11.9897 13.5133 11.9514 13.2132C11.9131 12.913 11.9862 12.6092 12.1569 12.3593C12.3275 12.1095 12.5839 11.9308 12.8774 11.8573C13.1709 11.7837 13.4812 11.8204 13.7495 11.9602C15.6124 13.2207 17.0218 15.0455 17.7705 17.1664C18.5193 19.2873 18.5678 21.5925 17.9091 23.7431C17.2503 25.8937 15.9191 27.7762 14.1109 29.1139C12.3028 30.4517 10.1132 31.1741 7.86396 31.1749H7.83923Z" fill="#95E1D3"/>
<path d="M55.0476 31.1256C51.1833 30.8332 47.5711 29.0953 44.9311 26.2583C42.2911 23.4212 40.8173 19.6934 40.8035 15.8181C40.7983 13.9492 41.1421 12.0957 41.8174 10.3529C41.8773 10.2018 41.9665 10.064 42.0798 9.94743C42.193 9.83083 42.3282 9.7377 42.4775 9.67339C42.6268 9.60908 42.7873 9.57483 42.9498 9.57262C43.1124 9.57041 43.2738 9.60028 43.4248 9.66051C43.5771 9.71499 43.7167 9.80003 43.835 9.91042C43.9532 10.0208 44.0477 10.1542 44.1125 10.3024C44.1774 10.4506 44.2113 10.6105 44.2121 10.7723C44.2129 10.9341 44.1806 11.0943 44.1172 11.2432C43.4276 13.1075 43.1787 15.106 43.39 17.0825C43.6013 19.0589 44.267 20.9597 45.3351 22.6361C46.4032 24.3125 47.8447 25.719 49.5468 26.7456C51.2489 27.7722 53.1654 28.391 55.1465 28.5537C55.4744 28.5537 55.7889 28.684 56.0208 28.9159C56.2527 29.1478 56.383 29.4623 56.383 29.7902C56.383 30.1181 56.2527 30.4326 56.0208 30.6645C55.7889 30.8964 55.4744 31.0267 55.1465 31.0267L55.0476 31.1256Z" fill="#95E1D3"/>
</svg>
