<svg width="60" height="60" viewBox="0 0 60 60" fill="none" xmlns="http://www.w3.org/2000/svg">
<path d="M9.89174 50.6951C9.63587 50.6939 9.38618 50.6165 9.17459 50.4726C8.99319 50.3708 8.84103 50.2241 8.73276 50.0465C8.62448 49.869 8.56373 49.6665 8.55636 49.4587V14.8376C8.55459 14.5864 8.62937 14.3406 8.77073 14.133C8.9121 13.9254 9.11335 13.7657 9.3477 13.6753L21.9844 8.72944C22.2727 8.62957 22.5863 8.62957 22.8746 8.72944L34.8684 13.428L49.1867 8.72944C49.3712 8.65923 49.5709 8.63827 49.766 8.66862C49.9611 8.69897 50.145 8.77959 50.2995 8.90255C50.456 9.0149 50.5828 9.16368 50.669 9.33602C50.7552 9.50836 50.7981 9.69908 50.7941 9.89172V44.5128C50.7959 44.7708 50.7154 45.0227 50.5642 45.2317C50.4129 45.4408 50.1989 45.5961 49.9533 45.6751L35.1157 50.6209C34.844 50.7192 34.5465 50.7192 34.2749 50.6209L22.4048 45.9471L10.238 50.6209C10.1261 50.6601 10.0098 50.6851 9.89174 50.6951ZM22.5037 43.2763C22.6582 43.2395 22.8191 43.2395 22.9736 43.2763L34.6211 48.148L48.2964 43.5236V11.598L35.1899 15.901C34.9182 15.9992 34.6207 15.9992 34.3491 15.901L22.4048 11.2271L11.0293 15.5795V47.7276L21.9844 43.5484C22.1053 43.452 22.2511 43.392 22.4048 43.3753L22.5037 43.2763Z" fill="#95E1D3"/>
<path d="M22.4048 45.8482C22.0769 45.8482 21.7624 45.7179 21.5305 45.4861C21.2986 45.2542 21.1683 44.9397 21.1683 44.6117V9.89174C21.1683 9.56381 21.2986 9.24931 21.5305 9.01743C21.7624 8.78554 22.0769 8.65527 22.4048 8.65527C22.7327 8.65527 23.0472 8.78554 23.2791 9.01743C23.511 9.24931 23.6413 9.56381 23.6413 9.89174V44.5128C23.6549 44.6833 23.6331 44.8548 23.5771 45.0164C23.5211 45.1781 23.4322 45.3263 23.316 45.4518C23.1998 45.5773 23.0588 45.6773 22.902 45.7456C22.7451 45.8138 22.5758 45.8488 22.4048 45.8482Z" fill="#95E1D3"/>
<path d="M34.8436 50.6952C34.5157 50.6952 34.2012 50.5649 33.9693 50.333C33.7374 50.1011 33.6072 49.7866 33.6072 49.4587V14.8376C33.6072 14.5097 33.7374 14.1952 33.9693 13.9633C34.2012 13.7314 34.5157 13.6011 34.8436 13.6011C35.1716 13.6011 35.4861 13.7314 35.718 13.9633C35.9498 14.1952 36.0801 14.5097 36.0801 14.8376V49.4587C36.0801 49.7866 35.9498 50.1011 35.718 50.333C35.4861 50.5649 35.1716 50.6952 34.8436 50.6952Z" fill="#95E1D3"/>
</svg>
