<svg width="60" height="60" viewBox="0 0 60 60" fill="none" xmlns="http://www.w3.org/2000/svg">
<path d="M29.9658 53.1681C25.3193 53.1681 20.7772 51.7902 16.9138 49.2088C13.0505 46.6274 10.0393 42.9583 8.2612 38.6655C6.48308 34.3728 6.01784 29.6491 6.92432 25.092C7.8308 20.5348 10.0683 16.3488 13.3538 13.0632C16.6394 9.77769 20.8254 7.54021 25.3826 6.63373C29.9397 5.72725 34.6634 6.19249 38.9561 7.97061C43.2489 9.74873 46.918 12.7599 49.4994 16.6233C52.0808 20.4866 53.4587 25.0287 53.4587 29.6752C53.4521 35.9039 50.9749 41.8756 46.5705 46.2799C42.1662 50.6843 36.1945 53.1615 29.9658 53.1681ZM29.9658 8.65526C25.8084 8.65526 21.7444 9.88806 18.2877 12.1978C14.831 14.5075 12.1368 17.7903 10.5459 21.6312C8.95494 25.4721 8.53868 29.6985 9.34974 33.776C10.1608 37.8535 12.1628 41.5989 15.1024 44.5385C18.0421 47.4782 21.7875 49.4802 25.865 50.2913C29.9425 51.1023 34.1689 50.686 38.0098 49.0951C41.8507 47.5041 45.1335 44.81 47.4432 41.3533C49.7529 37.8965 50.9857 33.8326 50.9857 29.6752C50.9792 24.1024 48.7625 18.7597 44.8219 14.8191C40.8813 10.8785 35.5386 8.6618 29.9658 8.65526Z" fill="#95E1D3"/>
<path d="M29.9658 42.5592C27.4176 42.5592 24.9266 41.8035 22.8078 40.3878C20.6891 38.9721 19.0377 36.9599 18.0625 34.6057C17.0874 32.2514 16.8322 29.6609 17.3294 27.1617C17.8265 24.6624 19.0536 22.3667 20.8554 20.5648C22.6573 18.763 24.953 17.5359 27.4522 17.0388C29.9515 16.5416 32.542 16.7968 34.8963 17.7719C37.2505 18.7471 39.2627 20.3985 40.6784 22.5172C42.0941 24.636 42.8498 27.127 42.8498 29.6752C42.8432 33.0902 41.4837 36.3635 39.0689 38.7783C36.6541 41.1931 33.3808 42.5526 29.9658 42.5592ZM29.9658 19.2641C27.9067 19.2641 25.8938 19.8747 24.1817 21.0187C22.4696 22.1627 21.1352 23.7887 20.3472 25.6911C19.5592 27.5934 19.3531 29.6867 19.7548 31.7063C20.1565 33.7258 21.148 35.5809 22.6041 37.0369C24.0601 38.4929 25.9151 39.4845 27.9347 39.8862C29.9542 40.2879 32.0475 40.0817 33.9499 39.2938C35.8523 38.5058 37.4783 37.1714 38.6223 35.4593C39.7662 33.7472 40.3768 31.7343 40.3768 29.6752C40.3703 26.916 39.2713 24.2717 37.3203 22.3207C35.3693 20.3696 32.725 19.2707 29.9658 19.2641Z" fill="#95E1D3"/>
<path d="M52.2222 30.9117H7.70937C7.38144 30.9117 7.06694 30.7814 6.83505 30.5495C6.60317 30.3176 6.4729 30.0031 6.4729 29.6752C6.4729 29.3473 6.60317 29.0328 6.83505 28.8009C7.06694 28.569 7.38144 28.4387 7.70937 28.4387H52.2222C52.5501 28.4387 52.8646 28.569 53.0965 28.8009C53.3284 29.0328 53.4587 29.3473 53.4587 29.6752C53.4587 30.0031 53.3284 30.3176 53.0965 30.5495C52.8646 30.7814 52.5501 30.9117 52.2222 30.9117Z" fill="#95E1D3"/>
<path d="M29.9658 53.1681C29.6378 53.1681 29.3233 53.0378 29.0915 52.8059C28.8596 52.574 28.7293 52.2595 28.7293 51.9316V7.41878C28.7293 7.09085 28.8596 6.77635 29.0915 6.54447C29.3233 6.31258 29.6378 6.18231 29.9658 6.18231C30.2937 6.18231 30.6082 6.31258 30.8401 6.54447C31.072 6.77635 31.2022 7.09085 31.2022 7.41878V51.9316C31.2022 52.2595 31.072 52.574 30.8401 52.8059C30.6082 53.0378 30.2937 53.1681 29.9658 53.1681Z" fill="#95E1D3"/>
</svg>
