<svg width="370" height="80" viewBox="0 0 370 80" fill="none" xmlns="http://www.w3.org/2000/svg">
<rect x="3" y="4.42432" width="365" height="73.5758" stroke="white" stroke-width="4"/>
<path d="M109.842 48V30.96H113.154V45.096H121.842V48H109.842ZM135.69 45.096V48H123.858V30.96H135.474V33.864H127.17V37.968H134.346V40.656H127.17V45.096H135.69ZM142.904 30.96H146.264L152.528 48H149.12L147.536 43.752H141.584L140.024 48H136.616L142.904 30.96ZM146.936 41.424L144.584 34.392L142.136 41.424H146.936ZM154.397 48V30.96H161.933C162.717 30.96 163.437 31.12 164.093 31.44C164.765 31.76 165.341 32.192 165.821 32.736C166.317 33.28 166.693 33.888 166.949 34.56C167.221 35.232 167.357 35.92 167.357 36.624C167.357 37.712 167.077 38.712 166.517 39.624C165.973 40.536 165.229 41.192 164.285 41.592L168.173 48H164.525L161.021 42.288H157.709V48H154.397ZM157.709 39.384H161.861C162.485 39.384 162.997 39.12 163.397 38.592C163.813 38.048 164.021 37.392 164.021 36.624C164.021 36.096 163.909 35.624 163.685 35.208C163.461 34.792 163.173 34.464 162.821 34.224C162.485 33.984 162.117 33.864 161.717 33.864H157.709V39.384ZM173.67 37.056V48H170.358V30.96H172.998L181.806 42.192V30.984H185.118V48H182.358L173.67 37.056ZM208.324 48V36.816L203.956 45.144H202.108L197.74 36.816V48H194.428V30.96H197.98L203.02 40.656L208.108 30.96H211.636V48H208.324ZM222.466 48.12C221.218 48.12 220.082 47.88 219.058 47.4C218.05 46.92 217.178 46.272 216.442 45.456C215.722 44.624 215.162 43.696 214.762 42.672C214.362 41.632 214.162 40.568 214.162 39.48C214.162 38.344 214.37 37.264 214.786 36.24C215.202 35.2 215.786 34.28 216.538 33.48C217.29 32.664 218.17 32.024 219.178 31.56C220.202 31.08 221.322 30.84 222.538 30.84C223.77 30.84 224.89 31.088 225.898 31.584C226.922 32.08 227.794 32.744 228.514 33.576C229.25 34.408 229.81 35.344 230.194 36.384C230.594 37.408 230.794 38.456 230.794 39.528C230.794 40.648 230.586 41.728 230.17 42.768C229.754 43.792 229.17 44.712 228.418 45.528C227.682 46.328 226.802 46.96 225.778 47.424C224.77 47.888 223.666 48.12 222.466 48.12ZM217.522 39.48C217.522 40.472 217.714 41.4 218.098 42.264C218.498 43.128 219.066 43.832 219.802 44.376C220.554 44.92 221.45 45.192 222.49 45.192C223.562 45.192 224.466 44.912 225.202 44.352C225.938 43.792 226.498 43.072 226.882 42.192C227.266 41.312 227.458 40.408 227.458 39.48C227.458 38.488 227.258 37.56 226.858 36.696C226.458 35.832 225.882 35.136 225.13 34.608C224.394 34.064 223.514 33.792 222.49 33.792C221.418 33.792 220.514 34.072 219.778 34.632C219.042 35.192 218.482 35.912 218.098 36.792C217.714 37.656 217.522 38.552 217.522 39.48ZM233.335 48V30.96H240.871C241.655 30.96 242.375 31.12 243.031 31.44C243.703 31.76 244.279 32.192 244.759 32.736C245.255 33.28 245.631 33.888 245.887 34.56C246.159 35.232 246.295 35.92 246.295 36.624C246.295 37.712 246.015 38.712 245.455 39.624C244.911 40.536 244.167 41.192 243.223 41.592L247.111 48H243.463L239.959 42.288H236.647V48H233.335ZM236.647 39.384H240.799C241.423 39.384 241.935 39.12 242.335 38.592C242.751 38.048 242.959 37.392 242.959 36.624C242.959 36.096 242.847 35.624 242.623 35.208C242.399 34.792 242.111 34.464 241.759 34.224C241.423 33.984 241.055 33.864 240.655 33.864H236.647V39.384ZM261.128 45.096V48H249.296V30.96H260.912V33.864H252.608V37.968H259.784V40.656H252.608V45.096H261.128Z" fill="white"/>
</svg>
