<svg width="159" height="27" viewBox="0 0 159 27" fill="none" xmlns="http://www.w3.org/2000/svg">
<path d="M15.92 16.644V21H1.304V16.644H6.416V5.736C6.128 6.096 5.636 6.48 4.94 6.888C4.268 7.296 3.524 7.644 2.708 7.932C1.916 8.22 1.208 8.364 0.584 8.364V3.864C1.016 3.864 1.532 3.732 2.132 3.468C2.756 3.18 3.368 2.844 3.968 2.46C4.592 2.076 5.12 1.704 5.552 1.344C6.008 0.959999 6.296 0.659999 6.416 0.443999H11.348V16.644H15.92ZM26.2211 26.364C24.3731 26.364 22.7051 25.968 21.2171 25.176C19.7291 24.384 18.6011 23.304 17.8331 21.936L20.6051 19.056C21.2771 19.992 22.1171 20.736 23.1251 21.288C24.1331 21.84 25.1771 22.116 26.2571 22.116C27.5531 22.116 28.6091 21.72 29.4251 20.928C30.2651 20.136 30.6851 19.104 30.6851 17.832C30.6851 16.584 30.2891 15.576 29.4971 14.808C28.7051 14.04 27.7211 13.656 26.5451 13.656C25.7531 13.656 25.0091 13.836 24.3131 14.196C23.6411 14.532 23.1011 15.024 22.6931 15.672H18.4811L21.4331 0.443999H34.0331V4.836H24.9251L23.8811 10.56C24.1691 10.272 24.5891 10.032 25.1411 9.84C25.7171 9.624 26.4131 9.516 27.2291 9.516C28.8371 9.516 30.2651 9.864 31.5131 10.56C32.7851 11.256 33.7811 12.228 34.5011 13.476C35.2451 14.7 35.6171 16.116 35.6171 17.724C35.6171 19.452 35.2091 20.964 34.3931 22.26C33.5771 23.556 32.4611 24.564 31.0451 25.284C29.6291 26.004 28.0211 26.364 26.2211 26.364ZM38.0547 21V8.238H40.5387V14.304L45.9027 8.22H48.6387L43.7427 13.89L48.9447 21H46.1367L42.1587 15.492L40.5387 17.184V21H38.0547ZM56.4664 8.22H64.4224L64.1884 9.336H57.4744L56.4844 14.034H62.1544L61.9204 15.078H56.2504L54.9904 21H53.7484L56.4664 8.22ZM68.7175 21.09C67.9735 21.09 67.3195 20.946 66.7555 20.658C66.1915 20.37 65.7175 19.98 65.3335 19.488C64.9495 18.996 64.6615 18.438 64.4695 17.814C64.2775 17.178 64.1815 16.518 64.1815 15.834C64.1815 14.838 64.3795 13.884 64.7755 12.972C65.1715 12.048 65.7055 11.226 66.3775 10.506C67.0615 9.774 67.8355 9.198 68.6995 8.778C69.5635 8.346 70.4695 8.13 71.4175 8.13C72.1615 8.13 72.8155 8.28 73.3795 8.58C73.9435 8.868 74.4115 9.264 74.7835 9.768C75.1675 10.26 75.4495 10.824 75.6295 11.46C75.8215 12.096 75.9175 12.75 75.9175 13.422C75.9175 14.406 75.7195 15.36 75.3235 16.284C74.9395 17.196 74.4115 18.018 73.7395 18.75C73.0675 19.47 72.2995 20.04 71.4355 20.46C70.5715 20.88 69.6655 21.09 68.7175 21.09ZM68.9695 19.956C69.7615 19.956 70.4995 19.77 71.1835 19.398C71.8795 19.026 72.4855 18.528 73.0015 17.904C73.5175 17.268 73.9195 16.572 74.2075 15.816C74.5075 15.048 74.6575 14.28 74.6575 13.512C74.6575 12.756 74.5255 12.06 74.2615 11.424C73.9975 10.776 73.6075 10.26 73.0915 9.876C72.5755 9.48 71.9335 9.282 71.1655 9.282C70.3735 9.282 69.6295 9.468 68.9335 9.84C68.2495 10.212 67.6435 10.71 67.1155 11.334C66.5995 11.946 66.1915 12.636 65.8915 13.404C65.6035 14.172 65.4595 14.946 65.4595 15.726C65.4595 16.482 65.5855 17.184 65.8375 17.832C66.1015 18.468 66.4915 18.984 67.0075 19.38C67.5355 19.764 68.1895 19.956 68.9695 19.956ZM79.4938 8.22H80.7358L78.2518 19.884H85.2358L85.0018 21H76.7758L79.4938 8.22ZM89.5133 8.22H90.7553L88.2713 19.884H95.2553L95.0213 21H86.7953L89.5133 8.22ZM100.973 21.09C100.229 21.09 99.5754 20.946 99.0114 20.658C98.4474 20.37 97.9734 19.98 97.5894 19.488C97.2054 18.996 96.9174 18.438 96.7254 17.814C96.5334 17.178 96.4374 16.518 96.4374 15.834C96.4374 14.838 96.6354 13.884 97.0314 12.972C97.4274 12.048 97.9614 11.226 98.6334 10.506C99.3174 9.774 100.091 9.198 100.955 8.778C101.819 8.346 102.725 8.13 103.673 8.13C104.417 8.13 105.071 8.28 105.635 8.58C106.199 8.868 106.667 9.264 107.039 9.768C107.423 10.26 107.705 10.824 107.885 11.46C108.077 12.096 108.173 12.75 108.173 13.422C108.173 14.406 107.975 15.36 107.579 16.284C107.195 17.196 106.667 18.018 105.995 18.75C105.323 19.47 104.555 20.04 103.691 20.46C102.827 20.88 101.921 21.09 100.973 21.09ZM101.225 19.956C102.017 19.956 102.755 19.77 103.439 19.398C104.135 19.026 104.741 18.528 105.257 17.904C105.773 17.268 106.175 16.572 106.463 15.816C106.763 15.048 106.913 14.28 106.913 13.512C106.913 12.756 106.781 12.06 106.517 11.424C106.253 10.776 105.863 10.26 105.347 9.876C104.831 9.48 104.189 9.282 103.421 9.282C102.629 9.282 101.885 9.468 101.189 9.84C100.505 10.212 99.8994 10.71 99.3714 11.334C98.8554 11.946 98.4474 12.636 98.1474 13.404C97.8594 14.172 97.7154 14.946 97.7154 15.726C97.7154 16.482 97.8414 17.184 98.0934 17.832C98.3574 18.468 98.7474 18.984 99.2634 19.38C99.7914 19.764 100.445 19.956 101.225 19.956ZM109.747 8.22H111.097L113.041 19.542L116.551 13.764L115.597 8.31H116.785L117.505 12.846L120.187 8.31H121.375L118.099 13.764L119.161 19.542L125.893 8.22H127.279L119.413 21H118.333L117.145 14.682L113.257 21H112.159L109.747 8.22ZM129.134 8.22H137.144L136.91 9.336H130.142L129.152 13.944H135.056L134.84 15.006H128.936L127.892 19.884H134.822L134.588 21H126.416L129.134 8.22ZM136.893 21L139.611 8.22H144.741C145.341 8.22 145.851 8.382 146.271 8.706C146.703 9.018 147.033 9.432 147.261 9.948C147.489 10.452 147.603 10.986 147.603 11.55C147.603 12.234 147.441 12.9 147.117 13.548C146.793 14.184 146.355 14.73 145.803 15.186C145.263 15.642 144.663 15.936 144.003 16.068L145.929 21H144.507L142.671 16.284H139.143L138.135 21H136.893ZM143.319 15.168C143.859 15.168 144.357 14.994 144.813 14.646C145.269 14.298 145.629 13.86 145.893 13.332C146.169 12.792 146.307 12.246 146.307 11.694C146.307 11.058 146.133 10.506 145.785 10.038C145.437 9.57 144.987 9.336 144.435 9.336H140.619L139.377 15.168H143.319ZM152.138 21.108C150.254 21.108 148.742 20.49 147.602 19.254L148.448 18.228C148.784 18.684 149.288 19.092 149.96 19.452C150.632 19.812 151.442 19.992 152.39 19.992C153.47 19.992 154.328 19.764 154.964 19.308C155.6 18.852 155.918 18.216 155.918 17.4C155.918 16.956 155.792 16.602 155.54 16.338C155.3 16.062 154.946 15.834 154.478 15.654C154.022 15.474 153.458 15.3 152.786 15.132C152.09 14.952 151.502 14.76 151.022 14.556C150.542 14.34 150.176 14.064 149.924 13.728C149.672 13.392 149.546 12.954 149.546 12.414C149.546 11.538 149.774 10.782 150.23 10.146C150.686 9.498 151.304 9 152.084 8.652C152.864 8.304 153.74 8.13 154.712 8.13C155.516 8.13 156.218 8.262 156.818 8.526C157.418 8.778 157.922 9.138 158.33 9.606L157.52 10.614C157.268 10.218 156.878 9.894 156.35 9.642C155.822 9.378 155.198 9.246 154.478 9.246C153.266 9.246 152.366 9.516 151.778 10.056C151.202 10.596 150.914 11.256 150.914 12.036C150.914 12.432 151.016 12.75 151.22 12.99C151.436 13.23 151.754 13.428 152.174 13.584C152.606 13.74 153.146 13.902 153.794 14.07C154.538 14.25 155.168 14.454 155.684 14.682C156.212 14.91 156.614 15.21 156.89 15.582C157.166 15.942 157.304 16.422 157.304 17.022C157.304 17.946 157.07 18.714 156.602 19.326C156.134 19.926 155.51 20.376 154.73 20.676C153.95 20.964 153.086 21.108 152.138 21.108Z" fill="#2D3033"/>
</svg>
