<svg width="19" height="19" viewBox="0 0 19 19" fill="none" xmlns="http://www.w3.org/2000/svg">
<path d="M9.00195 18.041C6.54195 18.041 6.25195 18.028 5.29195 17.986C4.54332 17.9614 3.80438 17.8092 3.10695 17.536C2.51013 17.3037 1.96813 16.9499 1.51537 16.497C1.06261 16.044 0.708987 15.5019 0.476953 14.905C0.214259 14.205 0.072571 13.4655 0.0579531 12.718C0.00195312 11.76 0.00195312 11.446 0.00195312 9.005C0.00195312 6.538 0.0149531 6.25 0.0579531 5.295C0.0728908 4.54853 0.214574 3.81001 0.476953 3.111C0.70872 2.51334 1.06258 1.97058 1.51595 1.51739C1.96931 1.0642 2.5122 0.710545 3.10995 0.479005C3.8086 0.215207 4.5473 0.0731491 5.29395 0.0590048C6.24895 0.00500478 6.56295 0.00500488 9.00195 0.00500488C11.482 0.00500488 11.767 0.0180048 12.712 0.0590048C13.46 0.0730048 14.202 0.215005 14.902 0.479005C15.4995 0.710813 16.0423 1.06457 16.4956 1.51772C16.949 1.97088 17.3029 2.5135 17.535 3.111C17.802 3.821 17.945 4.571 17.956 5.328C18.012 6.28601 18.012 6.599 18.012 9.039C18.012 11.479 17.998 11.799 17.956 12.746C17.941 13.4942 17.799 14.2344 17.536 14.935C17.3033 15.5323 16.949 16.0748 16.4956 16.5279C16.0422 16.981 15.4995 17.3348 14.902 17.567C14.202 17.829 13.463 17.971 12.716 17.986C11.761 18.041 11.448 18.041 9.00195 18.041ZM8.96795 1.588C6.52195 1.588 6.26795 1.6 5.31295 1.643C4.7426 1.65046 4.17775 1.75565 3.64295 1.954C3.25288 2.10352 2.89847 2.33311 2.60257 2.62799C2.30667 2.92286 2.07583 3.27646 1.92495 3.666C1.72495 4.206 1.61995 4.777 1.61395 5.353C1.56095 6.322 1.56095 6.576 1.56095 9.005C1.56095 11.405 1.56995 11.696 1.61395 12.659C1.62295 13.229 1.72795 13.794 1.92495 14.329C2.23095 15.116 2.85495 15.738 3.64395 16.04C4.17806 16.2396 4.7428 16.3448 5.31295 16.351C6.28095 16.407 6.53595 16.407 8.96795 16.407C11.421 16.407 11.675 16.395 12.622 16.351C13.1924 16.3441 13.7573 16.2389 14.292 16.04C14.6799 15.8893 15.0323 15.6596 15.3267 15.3654C15.6211 15.0712 15.8511 14.7189 16.002 14.331C16.202 13.791 16.307 13.219 16.313 12.643H16.324C16.367 11.687 16.367 11.432 16.367 8.98901C16.367 6.54601 16.356 6.289 16.313 5.334C16.3039 4.76446 16.1988 4.20054 16.002 3.666C15.8514 3.27755 15.6216 2.92471 15.3272 2.62995C15.0328 2.3352 14.6802 2.105 14.292 1.954C13.757 1.754 13.192 1.65 12.622 1.643C11.655 1.588 11.402 1.588 8.96795 1.588ZM9.00195 13.624C8.08753 13.6246 7.19346 13.354 6.43284 12.8464C5.67222 12.3388 5.07921 11.6171 4.72882 10.7725C4.37842 9.92783 4.28638 8.99825 4.46434 8.10131C4.6423 7.20437 5.08227 6.38034 5.72858 5.73347C6.3749 5.08659 7.19854 4.64591 8.09533 4.46718C8.99212 4.28844 9.92178 4.37967 10.7667 4.72934C11.6116 5.079 12.3339 5.67138 12.8421 6.43156C13.3504 7.19175 13.6218 8.08558 13.622 9C13.6204 10.2252 13.1332 11.3998 12.2673 12.2665C11.4013 13.1332 10.2271 13.6214 9.00195 13.624ZM9.00195 5.998C8.40861 5.998 7.82859 6.17395 7.33524 6.5036C6.84189 6.83324 6.45738 7.30178 6.23031 7.84995C6.00325 8.39813 5.94384 9.00133 6.0596 9.58328C6.17535 10.1652 6.46108 10.6998 6.88063 11.1193C7.30019 11.5389 7.83474 11.8246 8.41668 11.9404C8.99862 12.0561 9.60182 11.9967 10.15 11.7696C10.6982 11.5426 11.1667 11.1581 11.4964 10.6647C11.826 10.1714 12.002 9.59135 12.002 8.998C12.0001 8.20292 11.6834 7.44094 11.1212 6.87873C10.559 6.31652 9.79703 5.99985 9.00195 5.998ZM13.802 5.285C13.6604 5.28448 13.5203 5.25608 13.3897 5.20142C13.2591 5.14676 13.1406 5.06691 13.0409 4.96644C12.8394 4.76352 12.7269 4.48891 12.728 4.203C12.729 3.9171 12.8436 3.64333 13.0465 3.44192C13.2494 3.2405 13.524 3.12794 13.81 3.129C14.0959 3.13007 14.3696 3.24466 14.571 3.44757C14.7725 3.65049 14.885 3.9251 14.884 4.211C14.8829 4.49691 14.7683 4.77068 14.5654 4.97209C14.3625 5.17351 14.0879 5.28607 13.802 5.285Z" fill="#414042"/>
</svg>
