<svg width="16" height="20" viewBox="0 0 16 20" fill="none" xmlns="http://www.w3.org/2000/svg">
<path d="M6.67002 13.0969C6.16402 15.8229 5.54802 18.4369 3.72002 19.8019C3.15702 15.6819 4.54902 12.5869 5.19502 9.30194C4.09302 7.39194 5.32802 3.54694 7.65202 4.49394C10.512 5.65994 5.17502 11.5959 8.75803 12.3379C12.499 13.1119 14.027 5.65494 11.707 3.22894C8.35502 -0.272057 1.95002 3.14994 2.73802 8.16294C2.93002 9.38894 4.15902 9.76094 3.22902 11.4529C1.08402 10.9619 0.444024 9.21994 0.527024 6.89694C0.659024 3.09694 3.84402 0.434943 7.03802 0.066943C11.078 -0.399057 14.869 1.59394 15.392 5.50694C15.982 9.92294 13.569 14.7069 9.25002 14.3619C8.07902 14.2689 7.58702 13.6719 6.67002 13.0969Z" fill="#414042"/>
</svg>
